<?xml version="1.0" standalone="no"?>
<!DOCTYPE svg PUBLIC "-//W3C//DTD SVG 20010904//EN"
 "http://www.w3.org/TR/2001/REC-SVG-20010904/DTD/svg10.dtd">
<svg version="1.0" xmlns="http://www.w3.org/2000/svg"
 width="400.000000pt" height="400.000000pt" viewBox="0 0 400.000000 400.000000"
 preserveAspectRatio="xMidYMid meet">
<metadata>
Created by potrace 1.11, written by Peter Selinger 2001-2013
</metadata>
<g transform="translate(0.000000,400.000000) scale(0.100000,-0.100000)"
fill="#000000" stroke="none">
<path d="M2115 3971 c-50 -22 -122 -101 -161 -175 -16 -31 -32 -56 -36 -56
-12 0 -10 105 2 136 6 15 8 29 6 32 -11 10 -28 -55 -28 -106 0 -52 34 -142 53
-142 12 0 11 6 -6 40 -14 28 -14 33 4 68 23 46 85 129 115 154 50 43 54 36 16
-24 -45 -68 -83 -180 -78 -225 3 -28 3 -28 32 16 32 50 112 133 144 150 19 10
19 7 -8 -36 -16 -27 -32 -64 -36 -83 l-6 -35 27 38 c36 52 136 124 198 142 28
8 71 15 96 15 l46 -1 -30 -16 c-39 -20 -65 -43 -76 -68 -10 -20 -10 -20 8 0
31 34 76 62 123 76 l45 12 -40 9 c-78 18 -181 -4 -269 -57 -33 -19 -61 -34
-62 -32 -2 2 13 23 33 47 34 39 35 42 12 35 -54 -17 -97 -46 -152 -104 -32
-34 -60 -61 -62 -61 -7 0 18 76 38 115 11 22 37 66 59 98 21 31 37 57 36 57
-2 0 -21 -9 -43 -19z"/>
<path d="M1590 3943 c-22 -32 -25 -47 -25 -120 1 -46 -1 -83 -3 -83 -1 0 -20
35 -40 78 -22 46 -38 70 -40 60 -3 -15 17 -104 44 -197 6 -21 5 -22 -14 -12
-11 6 -24 11 -29 11 -4 -1 9 -10 30 -21 20 -11 37 -24 37 -29 0 -6 5 -10 10
-10 6 0 2 17 -9 38 -19 38 -51 137 -51 156 1 6 12 -10 25 -35 22 -42 82 -105
91 -96 3 2 -5 25 -17 51 -23 53 -29 141 -11 171 10 18 11 15 12 -22 0 -55 32
-139 70 -184 29 -36 117 -95 126 -86 3 3 -9 26 -26 53 -27 44 -50 102 -50 130
0 6 22 -11 50 -38 32 -31 59 -48 74 -48 23 0 24 2 16 31 -10 32 -4 80 13 114
14 29 49 65 57 60 4 -2 20 9 35 25 45 47 -4 31 -58 -19 -41 -37 -60 -78 -67
-141 l-6 -55 -67 67 -67 67 0 -37 c1 -20 9 -62 20 -92 10 -30 17 -57 14 -59
-8 -8 -66 54 -87 94 -15 28 -23 66 -27 127 l-5 88 -25 -37z"/>
<path d="M2380 3741 c-37 -8 -80 -31 -80 -43 0 -11 2 -10 51 12 49 22 124 26
184 9 22 -7 36 -13 30 -15 -5 -1 -36 -10 -68 -19 -32 -9 -55 -20 -52 -26 4 -5
11 -7 16 -3 26 15 130 33 194 33 l70 -1 -50 -12 c-56 -14 -115 -42 -115 -55 0
-5 29 -9 64 -10 70 -1 141 -25 130 -43 -4 -6 -3 -8 4 -4 5 3 12 1 14 -5 7 -20
100 -23 142 -5 49 20 56 15 18 -13 -33 -23 -47 -27 -36 -9 4 7 3 8 -5 4 -6 -4
-9 -12 -6 -17 4 -5 1 -9 -4 -9 -6 0 -11 4 -11 9 0 4 -26 7 -57 6 -41 -2 -63 2
-76 13 -16 15 -17 14 -11 -1 6 -16 -8 -17 -159 -17 -101 0 -167 -4 -169 -10
-3 -11 -509 -31 -947 -36 -156 -2 -287 -7 -290 -10 -3 -4 5 -3 19 0 23 6 23 6
5 -5 -11 -7 -30 -13 -42 -14 -21 -1 -21 1 -6 17 15 17 5 27 -11 11 -10 -11
-86 -11 -80 -1 3 4 -2 5 -11 2 -14 -6 -14 -8 2 -20 17 -13 17 -14 0 -8 -13 5
-16 2 -10 -12 12 -33 -18 -3 -33 32 -18 43 -18 42 11 36 14 -2 23 -7 21 -11
-7 -11 133 4 144 15 15 15 4 36 -56 109 l-44 55 28 0 c39 0 166 -33 226 -59
26 -12 62 -36 79 -54 17 -17 27 -26 23 -19 -4 7 -2 12 5 12 20 0 -40 58 -115
111 -69 49 -69 49 -35 49 19 -1 68 -7 109 -14 84 -15 102 -13 43 4 -56 17
-238 26 -229 11 4 -6 13 -11 19 -11 14 0 90 -50 85 -55 -2 -2 -35 5 -73 16
-83 23 -252 38 -220 18 58 -34 143 -138 130 -159 -9 -15 -96 -12 -144 5 l-41
14 0 -27 c0 -15 9 -45 20 -67 11 -21 17 -41 15 -44 -3 -2 -21 3 -40 12 -42 20
-93 95 -102 150 -8 53 -21 55 -28 3 -12 -81 34 -224 101 -312 15 -19 24 -38
20 -42 -4 -4 -40 -6 -79 -6 l-71 1 36 -33 c35 -31 102 -59 120 -48 4 3 8 1 8
-4 0 -6 -10 -12 -23 -16 -35 -8 -115 -83 -137 -127 -26 -50 -25 -54 8 -31 34
23 88 45 101 41 5 -2 -10 -30 -34 -61 -23 -31 -47 -69 -52 -85 -12 -35 22
-267 68 -461 17 -73 29 -135 27 -137 -3 -3 -15 6 -28 20 -48 51 -98 21 -128
-75 -14 -44 -17 -91 -16 -235 1 -166 3 -187 28 -270 35 -116 99 -238 157 -298
50 -52 80 -59 114 -27 l21 20 13 -113 c14 -121 36 -224 54 -246 6 -7 37 -31
69 -52 l58 -40 0 -69 c0 -38 -5 -72 -10 -75 -6 -4 -8 -10 -5 -15 3 -5 0 -49
-7 -97 -10 -73 -14 -83 -20 -58 -4 18 -5 5 -2 -30 7 -76 52 -208 95 -282 48
-80 140 -175 212 -221 70 -43 166 -86 175 -78 8 8 6 10 -78 48 -179 83 -305
228 -365 420 -18 56 -18 58 5 150 16 64 23 124 24 193 l1 100 65 -32 c205
-103 463 -173 632 -173 87 0 239 30 355 71 66 23 286 123 364 166 3 2 4 -56 1
-129 -3 -103 0 -152 14 -218 29 -137 26 -173 -24 -273 -47 -95 -145 -206 -237
-267 -27 -19 -53 -38 -57 -44 -32 -48 103 46 184 128 77 78 132 168 158 256
23 81 35 164 22 156 -17 -10 -23 35 -28 229 l-6 190 47 30 c80 51 103 102 131
287 15 97 19 108 30 92 26 -37 35 -44 60 -44 57 0 174 174 222 330 31 101 46
238 39 353 -14 219 -73 314 -151 242 -16 -14 -30 -24 -33 -22 -2 3 10 67 27
143 25 110 33 172 37 295 5 138 4 159 -12 183 -25 38 -15 40 28 5 34 -28 37
-29 37 -10 0 39 -43 134 -77 172 -20 22 -30 39 -23 39 16 0 100 -52 100 -62 0
-5 5 -8 10 -8 15 0 12 37 -5 70 -8 15 -31 42 -51 58 l-37 30 40 11 c49 14 88
43 109 83 19 36 14 44 -18 27 -40 -21 -208 -6 -208 19 0 4 24 8 52 9 29 2 68
8 88 15 35 13 35 13 -40 19 -73 6 -190 42 -190 59 0 11 49 21 140 29 l75 6
-49 24 c-35 17 -73 26 -135 30 l-86 6 37 23 c37 23 78 70 78 90 0 6 -20 -1
-44 -14 -24 -14 -67 -27 -95 -31 -44 -5 -54 -3 -81 20 -31 27 -86 47 -127 47
-71 0 27 34 122 43 l30 2 -24 14 c-14 7 -61 17 -105 21 -45 5 -108 15 -141 24
-63 17 -98 18 -155 7z m-1516 -289 c-4 -12 -3 -14 4 -4 7 10 13 7 26 -12 14
-23 14 -26 1 -26 -8 0 -14 5 -12 12 1 7 -5 12 -13 13 -14 0 -27 36 -28 80 -1
13 4 9 13 -13 8 -18 12 -40 9 -50z m1996 53 c0 -2 -13 -7 -28 -13 -21 -7 -29
-7 -29 2 0 6 13 11 29 12 15 1 28 0 28 -1z m117 -31 c-3 -3 -12 -4 -19 -1 -8
3 -5 6 6 6 11 1 17 -2 13 -5z m-2097 -89 c0 -5 -5 -3 -10 5 -5 8 -10 20 -10
25 0 6 5 3 10 -5 5 -8 10 -19 10 -25z m150 -11 c0 -8 -19 -13 -24 -6 -3 5 1 9
9 9 8 0 15 -2 15 -3z m1214 -140 c211 -31 396 -86 531 -157 l80 -42 3 -141 c1
-77 -2 -192 -7 -255 -8 -104 -7 -122 15 -204 33 -127 53 -282 56 -424 4 -152
18 -158 65 -27 46 128 99 230 135 261 31 26 31 26 51 7 65 -66 74 -377 16
-579 -24 -84 -83 -204 -131 -265 -48 -59 -78 -64 -109 -15 -18 29 -19 42 -14
137 4 58 5 103 2 100 -3 -3 -12 -68 -22 -145 -22 -188 -52 -331 -78 -380 -28
-51 -96 -101 -227 -168 -352 -182 -609 -228 -883 -157 -218 57 -498 182 -564
252 -30 32 -49 112 -73 311 -29 241 -40 301 -34 174 5 -113 -9 -157 -50 -157
-54 0 -166 187 -207 345 -26 101 -37 322 -20 420 12 68 34 124 54 137 35 22
119 -109 171 -266 26 -77 41 -106 56 -106 4 0 10 62 13 138 7 141 34 328 65
442 13 47 16 81 11 120 -4 30 -7 144 -8 252 l-1 196 113 56 c125 62 237 97
402 126 229 41 382 45 589 14z"/>
<path d="M1355 2523 c-46 -5 -70 -23 -96 -75 -26 -51 -25 -60 9 -47 90 35 366
52 482 29 25 -4 47 -6 49 -4 10 10 -38 60 -75 79 -33 16 -63 19 -184 21 -80 1
-163 0 -185 -3z"/>
<path d="M2281 2520 c-24 -5 -54 -16 -67 -25 -24 -16 -60 -63 -53 -69 2 -3 29
0 59 6 80 15 351 4 428 -17 35 -9 66 -15 68 -12 8 8 -31 80 -55 101 -18 16
-41 19 -178 22 -87 2 -178 -1 -202 -6z"/>
<path d="M1469 2286 c-71 -15 -159 -70 -159 -100 0 -5 15 4 33 21 17 17 43 36
57 43 l24 13 -27 -32 c-15 -18 -27 -37 -27 -43 0 -5 12 4 26 21 14 18 35 36
46 42 17 9 18 8 9 -10 -16 -30 -13 -92 6 -113 15 -17 15 -18 -8 -18 -13 0 -37
7 -54 15 l-30 15 23 -19 c13 -11 44 -23 69 -27 50 -7 189 1 238 14 67 18 29
107 -65 154 -72 35 -94 38 -161 24z m205 -74 c15 -16 28 -42 29 -58 2 -26 -2
-29 -38 -35 -48 -8 -50 -7 -35 21 7 12 10 40 8 61 -2 21 -1 39 2 39 4 0 19
-13 34 -28z m-165 -21 c19 -12 6 -41 -17 -41 -11 0 -25 6 -31 14 -10 11 -8 17
6 25 22 13 25 13 42 2z"/>
<path d="M2382 2284 c-87 -25 -158 -94 -150 -146 4 -27 33 -36 144 -44 100 -8
166 1 196 27 l23 19 -30 -15 c-16 -8 -41 -15 -54 -15 -23 0 -23 1 -8 18 19 21
22 83 7 113 -6 10 -8 19 -6 19 12 0 76 -63 76 -75 0 -8 4 -17 10 -20 17 -10
-9 48 -33 74 l-22 25 30 -18 c17 -10 42 -30 58 -44 15 -14 27 -21 27 -15 0 14
-52 58 -93 79 -45 24 -128 32 -175 18z m-60 -83 c-2 -21 1 -49 8 -61 15 -28
13 -29 -35 -21 -36 6 -40 9 -38 35 2 25 46 86 63 86 3 0 4 -18 2 -39z m188
-31 c0 -12 -46 -24 -59 -15 -17 10 -13 33 7 38 20 4 52 -10 52 -23z"/>
<path d="M890 1946 c0 -5 8 -23 19 -40 10 -17 26 -54 36 -83 l19 -52 -27 -21
c-56 -44 -21 -141 51 -139 l37 1 -35 8 c-42 10 -62 36 -58 75 2 21 11 34 30
43 25 12 26 15 16 50 -18 64 -87 189 -88 158z"/>
<path d="M3087 1932 c-19 -20 -62 -114 -71 -154 -5 -22 -2 -29 21 -40 36 -17
41 -55 13 -90 -11 -15 -33 -29 -48 -31 -16 -3 -11 -4 13 -3 35 1 42 5 59 37
23 43 16 85 -18 101 -23 10 -24 12 -11 54 7 24 25 64 39 90 28 50 29 65 3 36z"/>
<path d="M2150 1815 c0 -3 12 -29 27 -57 l27 -51 -33 -28 c-51 -42 -145 -89
-179 -89 -20 0 -57 18 -106 51 -41 27 -78 54 -81 59 -3 5 3 27 15 49 11 22 20
44 20 48 -1 16 -50 -72 -50 -89 0 -19 83 -89 141 -119 66 -33 102 -25 211 47
79 53 84 69 42 140 -24 40 -34 52 -34 39z"/>
<path d="M2060 1322 c0 -10 150 -32 206 -31 34 1 30 3 -26 14 -95 18 -180 26
-180 17z"/>
<path d="M1823 1311 c-39 -3 -75 -10 -80 -15 -11 -12 183 1 205 13 19 12 -2
12 -125 2z"/>
<path d="M1960 1190 c-55 -6 -45 -7 60 -8 69 -1 132 3 140 8 17 11 -91 11
-200 0z"/>
<path d="M2750 3540 c0 -5 5 -10 10 -10 6 0 10 5 10 10 0 6 -4 10 -10 10 -5 0
-10 -4 -10 -10z"/>
<path d="M2762 764 c14 -16 63 -101 108 -188 l81 -159 9 -106 c9 -96 6 -230
-6 -288 -3 -18 0 -23 15 -23 17 0 20 10 27 88 8 100 -9 312 -29 351 -88 173
-172 311 -200 331 l-32 23 27 -29z"/>
<path d="M1183 749 c-17 -11 -45 -41 -62 -67 -36 -57 -121 -231 -121 -248 0
-7 -17 -18 -37 -24 -143 -46 -622 -253 -828 -358 l-100 -51 46 0 c38 -1 77 14
220 83 135 66 624 296 685 322 7 3 14 -20 18 -68 8 -75 42 -289 52 -320 6 -19
34 -25 34 -9 0 6 -7 38 -15 73 -7 35 -23 126 -34 203 l-20 139 30 76 c50 123
108 220 145 242 19 11 34 22 34 24 0 9 -16 3 -47 -17z"/>
<path d="M3032 395 c26 -14 131 -64 235 -111 103 -48 280 -131 392 -185 171
-83 211 -99 250 -98 46 1 46 1 -101 74 -185 91 -402 187 -627 276 -179 71
-231 86 -149 44z"/>
</g>
</svg>
